<?xml version="1.0" encoding="UTF-8" standalone="no"?>
<!-- Created with Inkscape (http://www.inkscape.org/) -->

<svg
   xmlns:dc="http://purl.org/dc/elements/1.1/"
   xmlns:cc="http://creativecommons.org/ns#"
   xmlns:rdf="http://www.w3.org/1999/02/22-rdf-syntax-ns#"
   xmlns:svg="http://www.w3.org/2000/svg"
   xmlns="http://www.w3.org/2000/svg"
   xmlns:sodipodi="http://sodipodi.sourceforge.net/DTD/sodipodi-0.dtd"
   xmlns:inkscape="http://www.inkscape.org/namespaces/inkscape"
   width="744.09448819"
   height="1052.3622047"
   id="svg2"
   version="1.1"
   inkscape:version="0.48.4 r9939"
   sodipodi:docname="mlp.svg">
  <defs
     id="defs4">
    <marker
       inkscape:stockid="Arrow1Lend"
       orient="auto"
       refY="0.0"
       refX="0.0"
       id="Arrow1Lend"
       style="overflow:visible;">
      <path
         id="path3796"
         d="M 0.0,0.0 L 5.0,-5.0 L -12.5,0.0 L 5.0,5.0 L 0.0,0.0 z "
         style="fill-rule:evenodd;stroke:#000000;stroke-width:1.0pt;"
         transform="scale(0.8) rotate(180) translate(12.5,0)" />
    </marker>
    <marker
       inkscape:stockid="Arrow2Lend"
       orient="auto"
       refY="0.0"
       refX="0.0"
       id="Arrow2Lend"
       style="overflow:visible;">
      <path
         id="path3814"
         style="fill-rule:evenodd;stroke-width:0.62500000;stroke-linejoin:round;"
         d="M 8.7185878,4.0337352 L -2.2072895,0.016013256 L 8.7185884,-4.0017078 C 6.9730900,-1.6296469 6.9831476,1.6157441 8.7185878,4.0337352 z "
         transform="scale(1.1) rotate(180) translate(1,0)" />
    </marker>
    <marker
       inkscape:stockid="Arrow1Mend"
       orient="auto"
       refY="0.0"
       refX="0.0"
       id="Arrow1Mend"
       style="overflow:visible;">
      <path
         id="path3802"
         d="M 0.0,0.0 L 5.0,-5.0 L -12.5,0.0 L 5.0,5.0 L 0.0,0.0 z "
         style="fill-rule:evenodd;stroke:#000000;stroke-width:1.0pt;"
         transform="scale(0.4) rotate(180) translate(10,0)" />
    </marker>
    <marker
       inkscape:stockid="Arrow1Mend"
       orient="auto"
       refY="0"
       refX="0"
       id="Arrow1Mend-6"
       style="overflow:visible">
      <path
         inkscape:connector-curvature="0"
         id="path3802-8"
         d="M 0,0 5,-5 -12.5,0 5,5 0,0 z"
         style="fill-rule:evenodd;stroke:#000000;stroke-width:1pt"
         transform="matrix(-0.4,0,0,-0.4,-4,0)" />
    </marker>
    <marker
       inkscape:stockid="Arrow1Mend"
       orient="auto"
       refY="0"
       refX="0"
       id="Arrow1Mend-0"
       style="overflow:visible">
      <path
         inkscape:connector-curvature="0"
         id="path3802-7"
         d="M 0,0 5,-5 -12.5,0 5,5 0,0 z"
         style="fill-rule:evenodd;stroke:#000000;stroke-width:1pt"
         transform="matrix(-0.4,0,0,-0.4,-4,0)" />
    </marker>
    <marker
       inkscape:stockid="Arrow1Mend"
       orient="auto"
       refY="0"
       refX="0"
       id="Arrow1Mend-1"
       style="overflow:visible">
      <path
         inkscape:connector-curvature="0"
         id="path3802-4"
         d="M 0,0 5,-5 -12.5,0 5,5 0,0 z"
         style="fill-rule:evenodd;stroke:#000000;stroke-width:1pt"
         transform="matrix(-0.4,0,0,-0.4,-4,0)" />
    </marker>
    <marker
       inkscape:stockid="Arrow1Mend"
       orient="auto"
       refY="0"
       refX="0"
       id="Arrow1Mend-3"
       style="overflow:visible">
      <path
         inkscape:connector-curvature="0"
         id="path3802-6"
         d="M 0,0 5,-5 -12.5,0 5,5 0,0 z"
         style="fill-rule:evenodd;stroke:#000000;stroke-width:1pt"
         transform="matrix(-0.4,0,0,-0.4,-4,0)" />
    </marker>
    <marker
       inkscape:stockid="Arrow1Mend"
       orient="auto"
       refY="0"
       refX="0"
       id="Arrow1Mend-9"
       style="overflow:visible">
      <path
         inkscape:connector-curvature="0"
         id="path3802-0"
         d="M 0,0 5,-5 -12.5,0 5,5 0,0 z"
         style="fill-rule:evenodd;stroke:#000000;stroke-width:1pt"
         transform="matrix(-0.4,0,0,-0.4,-4,0)" />
    </marker>
    <marker
       inkscape:stockid="Arrow1Mend"
       orient="auto"
       refY="0"
       refX="0"
       id="marker5613"
       style="overflow:visible">
      <path
         inkscape:connector-curvature="0"
         id="path5615"
         d="M 0,0 5,-5 -12.5,0 5,5 0,0 z"
         style="fill-rule:evenodd;stroke:#000000;stroke-width:1pt"
         transform="matrix(-0.4,0,0,-0.4,-4,0)" />
    </marker>
    <marker
       inkscape:stockid="Arrow1Mend"
       orient="auto"
       refY="0"
       refX="0"
       id="marker5617"
       style="overflow:visible">
      <path
         inkscape:connector-curvature="0"
         id="path5619"
         d="M 0,0 5,-5 -12.5,0 5,5 0,0 z"
         style="fill-rule:evenodd;stroke:#000000;stroke-width:1pt"
         transform="matrix(-0.4,0,0,-0.4,-4,0)" />
    </marker>
    <marker
       inkscape:stockid="Arrow1Mend"
       orient="auto"
       refY="0"
       refX="0"
       id="Arrow1Mend-02"
       style="overflow:visible">
      <path
         inkscape:connector-curvature="0"
         id="path3802-3"
         d="M 0,0 5,-5 -12.5,0 5,5 0,0 z"
         style="fill-rule:evenodd;stroke:#000000;stroke-width:1pt"
         transform="matrix(-0.4,0,0,-0.4,-4,0)" />
    </marker>
    <marker
       inkscape:stockid="Arrow1Mend"
       orient="auto"
       refY="0"
       refX="0"
       id="marker5701"
       style="overflow:visible">
      <path
         inkscape:connector-curvature="0"
         id="path5703"
         d="M 0,0 5,-5 -12.5,0 5,5 0,0 z"
         style="fill-rule:evenodd;stroke:#000000;stroke-width:1pt"
         transform="matrix(-0.4,0,0,-0.4,-4,0)" />
    </marker>
    <marker
       inkscape:stockid="Arrow1Mend"
       orient="auto"
       refY="0"
       refX="0"
       id="marker5705"
       style="overflow:visible">
      <path
         inkscape:connector-curvature="0"
         id="path5707"
         d="M 0,0 5,-5 -12.5,0 5,5 0,0 z"
         style="fill-rule:evenodd;stroke:#000000;stroke-width:1pt"
         transform="matrix(-0.4,0,0,-0.4,-4,0)" />
    </marker>
    <marker
       inkscape:stockid="Arrow1Mend"
       orient="auto"
       refY="0"
       refX="0"
       id="marker5705-5"
       style="overflow:visible">
      <path
         inkscape:connector-curvature="0"
         id="path5707-7"
         d="M 0,0 5,-5 -12.5,0 5,5 0,0 z"
         style="fill-rule:evenodd;stroke:#000000;stroke-width:1pt"
         transform="matrix(-0.4,0,0,-0.4,-4,0)" />
    </marker>
    <marker
       inkscape:stockid="Arrow1Mend"
       orient="auto"
       refY="0"
       refX="0"
       id="marker6285"
       style="overflow:visible">
      <path
         inkscape:connector-curvature="0"
         id="path6287"
         d="M 0,0 5,-5 -12.5,0 5,5 0,0 z"
         style="fill-rule:evenodd;stroke:#000000;stroke-width:1pt"
         transform="matrix(-0.4,0,0,-0.4,-4,0)" />
    </marker>
    <marker
       inkscape:stockid="Arrow1Mend"
       orient="auto"
       refY="0"
       refX="0"
       id="marker6289"
       style="overflow:visible">
      <path
         inkscape:connector-curvature="0"
         id="path6291"
         d="M 0,0 5,-5 -12.5,0 5,5 0,0 z"
         style="fill-rule:evenodd;stroke:#000000;stroke-width:1pt"
         transform="matrix(-0.4,0,0,-0.4,-4,0)" />
    </marker>
    <marker
       inkscape:stockid="Arrow1Mend"
       orient="auto"
       refY="0"
       refX="0"
       id="marker6293"
       style="overflow:visible">
      <path
         inkscape:connector-curvature="0"
         id="path6295"
         d="M 0,0 5,-5 -12.5,0 5,5 0,0 z"
         style="fill-rule:evenodd;stroke:#000000;stroke-width:1pt"
         transform="matrix(-0.4,0,0,-0.4,-4,0)" />
    </marker>
    <marker
       inkscape:stockid="Arrow1Mend"
       orient="auto"
       refY="0"
       refX="0"
       id="marker6297"
       style="overflow:visible">
      <path
         inkscape:connector-curvature="0"
         id="path6299"
         d="M 0,0 5,-5 -12.5,0 5,5 0,0 z"
         style="fill-rule:evenodd;stroke:#000000;stroke-width:1pt"
         transform="matrix(-0.4,0,0,-0.4,-4,0)" />
    </marker>
    <marker
       inkscape:stockid="Arrow1Mend"
       orient="auto"
       refY="0"
       refX="0"
       id="marker6301"
       style="overflow:visible">
      <path
         inkscape:connector-curvature="0"
         id="path6303"
         d="M 0,0 5,-5 -12.5,0 5,5 0,0 z"
         style="fill-rule:evenodd;stroke:#000000;stroke-width:1pt"
         transform="matrix(-0.4,0,0,-0.4,-4,0)" />
    </marker>
    <marker
       inkscape:stockid="Arrow1Mend"
       orient="auto"
       refY="0"
       refX="0"
       id="marker6305"
       style="overflow:visible">
      <path
         inkscape:connector-curvature="0"
         id="path6307"
         d="M 0,0 5,-5 -12.5,0 5,5 0,0 z"
         style="fill-rule:evenodd;stroke:#000000;stroke-width:1pt"
         transform="matrix(-0.4,0,0,-0.4,-4,0)" />
    </marker>
    <marker
       inkscape:stockid="Arrow1Mend"
       orient="auto"
       refY="0"
       refX="0"
       id="marker6309"
       style="overflow:visible">
      <path
         inkscape:connector-curvature="0"
         id="path6311"
         d="M 0,0 5,-5 -12.5,0 5,5 0,0 z"
         style="fill-rule:evenodd;stroke:#000000;stroke-width:1pt"
         transform="matrix(-0.4,0,0,-0.4,-4,0)" />
    </marker>
    <marker
       inkscape:stockid="Arrow1Mend"
       orient="auto"
       refY="0"
       refX="0"
       id="marker6313"
       style="overflow:visible">
      <path
         inkscape:connector-curvature="0"
         id="path6315"
         d="M 0,0 5,-5 -12.5,0 5,5 0,0 z"
         style="fill-rule:evenodd;stroke:#000000;stroke-width:1pt"
         transform="matrix(-0.4,0,0,-0.4,-4,0)" />
    </marker>
    <marker
       inkscape:stockid="Arrow1Mend"
       orient="auto"
       refY="0"
       refX="0"
       id="marker5705-9"
       style="overflow:visible">
      <path
         inkscape:connector-curvature="0"
         id="path5707-9"
         d="M 0,0 5,-5 -12.5,0 5,5 0,0 z"
         style="fill-rule:evenodd;stroke:#000000;stroke-width:1pt"
         transform="matrix(-0.4,0,0,-0.4,-4,0)" />
    </marker>
    <marker
       inkscape:stockid="Arrow1Mend"
       orient="auto"
       refY="0"
       refX="0"
       id="marker6478"
       style="overflow:visible">
      <path
         inkscape:connector-curvature="0"
         id="path6480"
         d="M 0,0 5,-5 -12.5,0 5,5 0,0 z"
         style="fill-rule:evenodd;stroke:#000000;stroke-width:1pt"
         transform="matrix(-0.4,0,0,-0.4,-4,0)" />
    </marker>
    <marker
       inkscape:stockid="Arrow1Mend"
       orient="auto"
       refY="0"
       refX="0"
       id="marker6482"
       style="overflow:visible">
      <path
         inkscape:connector-curvature="0"
         id="path6484"
         d="M 0,0 5,-5 -12.5,0 5,5 0,0 z"
         style="fill-rule:evenodd;stroke:#000000;stroke-width:1pt"
         transform="matrix(-0.4,0,0,-0.4,-4,0)" />
    </marker>
    <marker
       inkscape:stockid="Arrow1Mend"
       orient="auto"
       refY="0"
       refX="0"
       id="marker6486"
       style="overflow:visible">
      <path
         inkscape:connector-curvature="0"
         id="path6488"
         d="M 0,0 5,-5 -12.5,0 5,5 0,0 z"
         style="fill-rule:evenodd;stroke:#000000;stroke-width:1pt"
         transform="matrix(-0.4,0,0,-0.4,-4,0)" />
    </marker>
    <marker
       inkscape:stockid="Arrow1Mend"
       orient="auto"
       refY="0"
       refX="0"
       id="marker6490"
       style="overflow:visible">
      <path
         inkscape:connector-curvature="0"
         id="path6492"
         d="M 0,0 5,-5 -12.5,0 5,5 0,0 z"
         style="fill-rule:evenodd;stroke:#000000;stroke-width:1pt"
         transform="matrix(-0.4,0,0,-0.4,-4,0)" />
    </marker>
    <marker
       inkscape:stockid="Arrow1Mend"
       orient="auto"
       refY="0"
       refX="0"
       id="marker6494"
       style="overflow:visible">
      <path
         inkscape:connector-curvature="0"
         id="path6496"
         d="M 0,0 5,-5 -12.5,0 5,5 0,0 z"
         style="fill-rule:evenodd;stroke:#000000;stroke-width:1pt"
         transform="matrix(-0.4,0,0,-0.4,-4,0)" />
    </marker>
    <marker
       inkscape:stockid="Arrow1Mend"
       orient="auto"
       refY="0"
       refX="0"
       id="marker6498"
       style="overflow:visible">
      <path
         inkscape:connector-curvature="0"
         id="path6500"
         d="M 0,0 5,-5 -12.5,0 5,5 0,0 z"
         style="fill-rule:evenodd;stroke:#000000;stroke-width:1pt"
         transform="matrix(-0.4,0,0,-0.4,-4,0)" />
    </marker>
    <marker
       inkscape:stockid="Arrow1Mend"
       orient="auto"
       refY="0"
       refX="0"
       id="marker6502"
       style="overflow:visible">
      <path
         inkscape:connector-curvature="0"
         id="path6504"
         d="M 0,0 5,-5 -12.5,0 5,5 0,0 z"
         style="fill-rule:evenodd;stroke:#000000;stroke-width:1pt"
         transform="matrix(-0.4,0,0,-0.4,-4,0)" />
    </marker>
    <marker
       inkscape:stockid="Arrow1Mend"
       orient="auto"
       refY="0"
       refX="0"
       id="marker6506"
       style="overflow:visible">
      <path
         inkscape:connector-curvature="0"
         id="path6508"
         d="M 0,0 5,-5 -12.5,0 5,5 0,0 z"
         style="fill-rule:evenodd;stroke:#000000;stroke-width:1pt"
         transform="matrix(-0.4,0,0,-0.4,-4,0)" />
    </marker>
  </defs>
  <sodipodi:namedview
     id="base"
     pagecolor="#ffffff"
     bordercolor="#666666"
     borderopacity="1.0"
     inkscape:pageopacity="0.0"
     inkscape:pageshadow="2"
     inkscape:zoom="1.4"
     inkscape:cx="406.64954"
     inkscape:cy="707.14816"
     inkscape:document-units="px"
     inkscape:current-layer="layer1"
     showgrid="false"
     inkscape:window-width="1918"
     inkscape:window-height="1078"
     inkscape:window-x="1920"
     inkscape:window-y="0"
     inkscape:window-maximized="0" />
  <metadata
     id="metadata7">
    <rdf:RDF>
      <cc:Work
         rdf:about="">
        <dc:format>image/svg+xml</dc:format>
        <dc:type
           rdf:resource="http://purl.org/dc/dcmitype/StillImage" />
        <dc:title></dc:title>
      </cc:Work>
    </rdf:RDF>
  </metadata>
  <g
     inkscape:label="Layer 1"
     inkscape:groupmode="layer"
     id="layer1">
    <flowRoot
       xml:space="preserve"
       id="flowRoot3761"
       style="fill:black;stroke:none;stroke-opacity:1;stroke-width:1px;stroke-linejoin:miter;stroke-linecap:butt;fill-opacity:1;font-family:Sans;font-style:normal;font-weight:normal;font-size:40px;line-height:125%;letter-spacing:0px;word-spacing:0px"><flowRegion
         id="flowRegion3763"><rect
           id="rect3765"
           width="19.445436"
           height="41.163715"
           x="194.45436"
           y="105.84924" /></flowRegion><flowPara
         id="flowPara3767"></flowPara></flowRoot>    <path
       sodipodi:type="arc"
       style="fill:none;stroke:#000000;stroke-width:0.90954149;stroke-miterlimit:4;stroke-dasharray:none"
       id="path2985"
       sodipodi:cx="110"
       sodipodi:cy="122.36218"
       sodipodi:rx="25.714285"
       sodipodi:ry="25.714285"
       d="m 135.71428,122.36218 a 25.714285,25.714285 0 1 1 -51.428565,0 25.714285,25.714285 0 1 1 51.428565,0 z"
       transform="matrix(1.5233921,0,0,1.5233921,96.560291,103.84243)" />
    <path
       style="fill:none;stroke:#000000;stroke-width:1.38558829;stroke-linecap:butt;stroke-linejoin:miter;stroke-miterlimit:4;stroke-opacity:1;stroke-dasharray:none"
       d="m 264.13342,251.15461 0,78.18676"
       id="path2987"
       inkscape:connector-curvature="0" />
    <text
       xml:space="preserve"
       style="font-size:42.95323563px;font-style:normal;font-variant:normal;font-weight:normal;font-stretch:normal;text-align:start;line-height:125%;letter-spacing:0px;word-spacing:0px;writing-mode:lr-tb;text-anchor:start;fill:#000000;fill-opacity:1;stroke:none;font-family:Sans;-inkscape-font-specification:Sans"
       x="233.85411"
       y="305.90454"
       id="text3775"
       sodipodi:linespacing="125%"><tspan
         sodipodi:role="line"
         id="tspan3779"
         x="233.85411"
         y="305.90454">Σ</tspan></text>
    <text
       xml:space="preserve"
       style="font-size:37.41088486px;font-style:normal;font-variant:normal;font-weight:normal;font-stretch:normal;text-align:start;line-height:125%;letter-spacing:0px;word-spacing:0px;writing-mode:lr-tb;text-anchor:start;fill:#000000;fill-opacity:1;stroke:none;font-family:Sans;-inkscape-font-specification:Sans"
       x="267.62079"
       y="303.88434"
       id="text3781"
       sodipodi:linespacing="125%"><tspan
         sodipodi:role="line"
         id="tspan3785"
         x="267.62079"
         y="303.88434">Φ</tspan></text>
    <path
       sodipodi:type="arc"
       style="fill:none;stroke:#000000;stroke-width:0.90954149;stroke-miterlimit:4;stroke-dasharray:none"
       id="path2985-8"
       sodipodi:cx="110"
       sodipodi:cy="122.36218"
       sodipodi:rx="25.714285"
       sodipodi:ry="25.714285"
       d="m 135.71428,122.36218 a 25.714285,25.714285 0 1 1 -51.428565,0 25.714285,25.714285 0 1 1 51.428565,0 z"
       transform="matrix(1.5233921,0,0,1.5233921,96.438111,-27.803766)" />
    <path
       style="fill:none;stroke:#000000;stroke-width:1.38558829;stroke-linecap:butt;stroke-linejoin:miter;stroke-miterlimit:4;stroke-opacity:1;stroke-dasharray:none"
       d="m 264.01124,119.50843 0,78.18676"
       id="path2987-5"
       inkscape:connector-curvature="0" />
    <text
       xml:space="preserve"
       style="font-size:42.95323563px;font-style:normal;font-variant:normal;font-weight:normal;font-stretch:normal;text-align:start;line-height:125%;letter-spacing:0px;word-spacing:0px;writing-mode:lr-tb;text-anchor:start;fill:#000000;fill-opacity:1;stroke:none;font-family:Sans;-inkscape-font-specification:Sans"
       x="233.73192"
       y="174.25836"
       id="text3775-4"
       sodipodi:linespacing="125%"><tspan
         sodipodi:role="line"
         id="tspan3779-1"
         x="233.73192"
         y="174.25836">Σ</tspan></text>
    <text
       xml:space="preserve"
       style="font-size:37.41088486px;font-style:normal;font-variant:normal;font-weight:normal;font-stretch:normal;text-align:start;line-height:125%;letter-spacing:0px;word-spacing:0px;writing-mode:lr-tb;text-anchor:start;fill:#000000;fill-opacity:1;stroke:none;font-family:Sans;-inkscape-font-specification:Sans"
       x="267.4986"
       y="172.23816"
       id="text3781-2"
       sodipodi:linespacing="125%"><tspan
         sodipodi:role="line"
         id="tspan3785-3"
         x="267.4986"
         y="172.23816">Φ</tspan></text>
    <path
       sodipodi:type="arc"
       style="fill:none;stroke:#000000;stroke-width:0.90954149;stroke-miterlimit:4;stroke-dasharray:none"
       id="path2985-6"
       sodipodi:cx="110"
       sodipodi:cy="122.36218"
       sodipodi:rx="25.714285"
       sodipodi:ry="25.714285"
       d="m 135.71428,122.36218 a 25.714285,25.714285 0 1 1 -51.428565,0 25.714285,25.714285 0 1 1 51.428565,0 z"
       transform="matrix(1.5233921,0,0,1.5233921,98.458411,259.05671)" />
    <path
       style="fill:none;stroke:#000000;stroke-width:1.38558829;stroke-linecap:butt;stroke-linejoin:miter;stroke-miterlimit:4;stroke-opacity:1;stroke-dasharray:none"
       d="m 266.53663,406.36889 0,78.18676"
       id="path2987-2"
       inkscape:connector-curvature="0" />
    <text
       xml:space="preserve"
       style="font-size:42.95323563px;font-style:normal;font-variant:normal;font-weight:normal;font-stretch:normal;text-align:start;line-height:125%;letter-spacing:0px;word-spacing:0px;writing-mode:lr-tb;text-anchor:start;fill:#000000;fill-opacity:1;stroke:none;font-family:Sans;-inkscape-font-specification:Sans"
       x="236.25731"
       y="461.11884"
       id="text3775-1"
       sodipodi:linespacing="125%"><tspan
         sodipodi:role="line"
         id="tspan3779-6"
         x="236.25731"
         y="461.11884">Σ</tspan></text>
    <text
       xml:space="preserve"
       style="font-size:37.41088486px;font-style:normal;font-variant:normal;font-weight:normal;font-stretch:normal;text-align:start;line-height:125%;letter-spacing:0px;word-spacing:0px;writing-mode:lr-tb;text-anchor:start;fill:#000000;fill-opacity:1;stroke:none;font-family:Sans;-inkscape-font-specification:Sans"
       x="270.02396"
       y="459.09863"
       id="text3781-9"
       sodipodi:linespacing="125%"><tspan
         sodipodi:role="line"
         id="tspan3785-5"
         x="270.02396"
         y="459.09863">Φ</tspan></text>
    <path
       style="fill:none;stroke:#000000;stroke-width:1px;stroke-linecap:butt;stroke-linejoin:miter;stroke-opacity:1;marker-end:url(#marker5705)"
       d="M 81.783912,216.79415 224.7205,155.69013"
       id="path5777"
       inkscape:connector-curvature="0"
       sodipodi:nodetypes="cc" />
    <path
       style="fill:none;stroke:#000000;stroke-width:1px;stroke-linecap:butt;stroke-linejoin:miter;stroke-opacity:1;marker-end:url(#marker5705)"
       d="M 81.783912,216.79415 224.21541,283.45406"
       id="path5779"
       inkscape:connector-curvature="0"
       sodipodi:nodetypes="cc" />
    <path
       style="fill:none;stroke:#000000;stroke-width:1px;stroke-linecap:butt;stroke-linejoin:miter;stroke-opacity:1;marker-end:url(#marker5705)"
       d="M 81.783912,216.79416 227.24589,440.53279"
       id="path5781"
       inkscape:connector-curvature="0"
       sodipodi:nodetypes="cc" />
    <path
       style="fill:none;stroke:#000000;stroke-width:1px;stroke-linecap:butt;stroke-linejoin:miter;stroke-opacity:1;marker-end:url(#marker5705)"
       d="m 81.783912,286.23199 141.926428,0.29315"
       id="path5785"
       inkscape:connector-curvature="0"
       sodipodi:nodetypes="cc" />
    <path
       style="fill:none;stroke:#000000;stroke-width:1px;stroke-linecap:butt;stroke-linejoin:miter;stroke-opacity:1;marker-end:url(#marker5705)"
       d="M 81.783912,286.23199 224.7205,157.69008"
       id="path5787"
       inkscape:connector-curvature="0"
       sodipodi:nodetypes="cc" />
    <path
       style="fill:none;stroke:#000000;stroke-width:1px;stroke-linecap:butt;stroke-linejoin:miter;stroke-opacity:1;marker-end:url(#marker5705)"
       d="M 81.783912,286.23199 226.23573,443.56325"
       id="path5789"
       inkscape:connector-curvature="0"
       sodipodi:nodetypes="cc" />
    <path
       style="fill:none;stroke:#000000;stroke-width:1px;stroke-linecap:butt;stroke-linejoin:miter;stroke-opacity:1;marker-end:url(#marker5705)"
       d="m 82.288988,408.44014 c 2.0203,-0.50507 143.946742,36.63833 143.946742,36.63833"
       id="path5791"
       inkscape:connector-curvature="0"
       sodipodi:nodetypes="cc" />
    <path
       style="fill:none;stroke:#000000;stroke-width:1px;stroke-linecap:butt;stroke-linejoin:miter;stroke-opacity:1;marker-end:url(#marker5705)"
       d="M 82.288988,408.44014 225.22557,288.9896"
       id="path5793"
       inkscape:connector-curvature="0"
       sodipodi:nodetypes="cc" />
    <path
       style="fill:none;stroke:#000000;stroke-width:1px;stroke-linecap:butt;stroke-linejoin:miter;stroke-opacity:1;marker-end:url(#marker5705)"
       d="M 82.288988,408.44014 225.22558,163.20531"
       id="path5795"
       inkscape:connector-curvature="0"
       sodipodi:nodetypes="cc" />
    <text
       xml:space="preserve"
       style="font-size:17px;font-style:normal;font-variant:normal;font-weight:normal;font-stretch:normal;text-align:start;line-height:125%;letter-spacing:0px;word-spacing:0px;writing-mode:lr-tb;text-anchor:start;fill:#000000;fill-opacity:1;stroke:none;font-family:Sans;-inkscape-font-specification:Sans"
       x="59.221592"
       y="220.59071"
       id="text6209"
       sodipodi:linespacing="125%"><tspan
         sodipodi:role="line"
         id="tspan6211"
         x="59.221592"
         y="220.59071">x<tspan
   style="font-size:65.00091553%;baseline-shift:sub"
   id="tspan6835">1</tspan></tspan></text>
    <text
       xml:space="preserve"
       style="font-size:17px;font-style:normal;font-variant:normal;font-weight:normal;font-stretch:normal;text-align:start;line-height:125%;letter-spacing:0px;word-spacing:0px;writing-mode:lr-tb;text-anchor:start;fill:#000000;fill-opacity:1;stroke:none;font-family:Sans;-inkscape-font-specification:Sans"
       x="62.21397"
       y="290.00854"
       id="text6209-9"
       sodipodi:linespacing="125%"><tspan
         sodipodi:role="line"
         id="tspan6211-5"
         x="62.21397"
         y="290.00854">x<tspan
   style="font-size:65.00091553%;baseline-shift:sub"
   id="tspan6837">2</tspan></tspan></text>
    <text
       xml:space="preserve"
       style="font-size:17px;font-style:normal;font-variant:normal;font-weight:normal;font-stretch:normal;text-align:start;line-height:125%;letter-spacing:0px;word-spacing:0px;writing-mode:lr-tb;text-anchor:start;fill:#000000;fill-opacity:1;stroke:none;font-family:Sans;-inkscape-font-specification:Sans"
       x="63.239666"
       y="413.24716"
       id="text6209-9-6"
       sodipodi:linespacing="125%"><tspan
         sodipodi:role="line"
         id="tspan6211-5-9"
         x="63.239666"
         y="413.24716">x<tspan
   style="font-size:65.00091553%;baseline-shift:sub"
   id="tspan6839">n</tspan></tspan></text>
    <path
       sodipodi:type="arc"
       style="fill:none;stroke:#000000;stroke-width:0.90954149;stroke-miterlimit:4;stroke-dasharray:none"
       id="path2985-0"
       sodipodi:cx="110"
       sodipodi:cy="122.36218"
       sodipodi:rx="25.714285"
       sodipodi:ry="25.714285"
       d="m 135.71428,122.36218 a 25.714285,25.714285 0 1 1 -51.428565,0 25.714285,25.714285 0 1 1 51.428565,0 z"
       transform="matrix(1.5233921,0,0,1.5233921,318.79412,103.6883)" />
    <path
       style="fill:none;stroke:#000000;stroke-width:1.38558829;stroke-linecap:butt;stroke-linejoin:miter;stroke-miterlimit:4;stroke-opacity:1;stroke-dasharray:none"
       d="m 486.36725,251.00048 0,78.18676"
       id="path2987-9"
       inkscape:connector-curvature="0" />
    <text
       xml:space="preserve"
       style="font-size:42.95323563px;font-style:normal;font-variant:normal;font-weight:normal;font-stretch:normal;text-align:start;line-height:125%;letter-spacing:0px;word-spacing:0px;writing-mode:lr-tb;text-anchor:start;fill:#000000;fill-opacity:1;stroke:none;font-family:Sans;-inkscape-font-specification:Sans"
       x="456.08792"
       y="305.75043"
       id="text3775-0"
       sodipodi:linespacing="125%"><tspan
         sodipodi:role="line"
         id="tspan3779-4"
         x="456.08792"
         y="305.75043">Σ</tspan></text>
    <text
       xml:space="preserve"
       style="font-size:37.41088486px;font-style:normal;font-variant:normal;font-weight:normal;font-stretch:normal;text-align:start;line-height:125%;letter-spacing:0px;word-spacing:0px;writing-mode:lr-tb;text-anchor:start;fill:#000000;fill-opacity:1;stroke:none;font-family:Sans;-inkscape-font-specification:Sans"
       x="489.85464"
       y="303.73022"
       id="text3781-26"
       sodipodi:linespacing="125%"><tspan
         sodipodi:role="line"
         id="tspan3785-8"
         x="489.85464"
         y="303.73022">Φ</tspan></text>
    <path
       sodipodi:type="arc"
       style="fill:none;stroke:#000000;stroke-width:0.90954149;stroke-miterlimit:4;stroke-dasharray:none"
       id="path2985-8-6"
       sodipodi:cx="110"
       sodipodi:cy="122.36218"
       sodipodi:rx="25.714285"
       sodipodi:ry="25.714285"
       d="m 135.71428,122.36218 a 25.714285,25.714285 0 1 1 -51.428565,0 25.714285,25.714285 0 1 1 51.428565,0 z"
       transform="matrix(1.5233921,0,0,1.5233921,318.67194,-27.957896)" />
    <path
       style="fill:none;stroke:#000000;stroke-width:1.38558829;stroke-linecap:butt;stroke-linejoin:miter;stroke-miterlimit:4;stroke-opacity:1;stroke-dasharray:none"
       d="m 486.24507,119.3543 0,78.18676"
       id="path2987-5-2"
       inkscape:connector-curvature="0" />
    <text
       xml:space="preserve"
       style="font-size:42.95323563px;font-style:normal;font-variant:normal;font-weight:normal;font-stretch:normal;text-align:start;line-height:125%;letter-spacing:0px;word-spacing:0px;writing-mode:lr-tb;text-anchor:start;fill:#000000;fill-opacity:1;stroke:none;font-family:Sans;-inkscape-font-specification:Sans"
       x="455.96573"
       y="174.10423"
       id="text3775-4-7"
       sodipodi:linespacing="125%"><tspan
         sodipodi:role="line"
         id="tspan3779-1-3"
         x="455.96573"
         y="174.10423">Σ</tspan></text>
    <text
       xml:space="preserve"
       style="font-size:37.41088486px;font-style:normal;font-variant:normal;font-weight:normal;font-stretch:normal;text-align:start;line-height:125%;letter-spacing:0px;word-spacing:0px;writing-mode:lr-tb;text-anchor:start;fill:#000000;fill-opacity:1;stroke:none;font-family:Sans;-inkscape-font-specification:Sans"
       x="489.73245"
       y="172.08403"
       id="text3781-2-9"
       sodipodi:linespacing="125%"><tspan
         sodipodi:role="line"
         id="tspan3785-3-0"
         x="489.73245"
         y="172.08403">Φ</tspan></text>
    <path
       sodipodi:type="arc"
       style="fill:none;stroke:#000000;stroke-width:0.90954149;stroke-miterlimit:4;stroke-dasharray:none"
       id="path2985-6-9"
       sodipodi:cx="110"
       sodipodi:cy="122.36218"
       sodipodi:rx="25.714285"
       sodipodi:ry="25.714285"
       d="m 135.71428,122.36218 a 25.714285,25.714285 0 1 1 -51.428565,0 25.714285,25.714285 0 1 1 51.428565,0 z"
       transform="matrix(1.5233921,0,0,1.5233921,321.19732,258.90258)" />
    <path
       style="fill:none;stroke:#000000;stroke-width:1.38558829;stroke-linecap:butt;stroke-linejoin:miter;stroke-miterlimit:4;stroke-opacity:1;stroke-dasharray:none"
       d="m 488.77046,406.21476 0,78.18676"
       id="path2987-2-6"
       inkscape:connector-curvature="0" />
    <text
       xml:space="preserve"
       style="font-size:42.95323563px;font-style:normal;font-variant:normal;font-weight:normal;font-stretch:normal;text-align:start;line-height:125%;letter-spacing:0px;word-spacing:0px;writing-mode:lr-tb;text-anchor:start;fill:#000000;fill-opacity:1;stroke:none;font-family:Sans;-inkscape-font-specification:Sans"
       x="458.49112"
       y="460.96472"
       id="text3775-1-4"
       sodipodi:linespacing="125%"><tspan
         sodipodi:role="line"
         id="tspan3779-6-2"
         x="458.49112"
         y="460.96472">Σ</tspan></text>
    <text
       xml:space="preserve"
       style="font-size:37.41088486px;font-style:normal;font-variant:normal;font-weight:normal;font-stretch:normal;text-align:start;line-height:125%;letter-spacing:0px;word-spacing:0px;writing-mode:lr-tb;text-anchor:start;fill:#000000;fill-opacity:1;stroke:none;font-family:Sans;-inkscape-font-specification:Sans"
       x="492.25784"
       y="458.94452"
       id="text3781-9-8"
       sodipodi:linespacing="125%"><tspan
         sodipodi:role="line"
         id="tspan3785-5-0"
         x="492.25784"
         y="458.94452">Φ</tspan></text>
    <path
       style="fill:none;stroke:#000000;stroke-width:1px;stroke-linecap:butt;stroke-linejoin:miter;stroke-opacity:1;marker-end:url(#marker5705)"
       d="m 303.51267,155.52581 143.44166,0.0102"
       id="path5777-8"
       inkscape:connector-curvature="0"
       sodipodi:nodetypes="cc" />
    <path
       style="fill:none;stroke:#000000;stroke-width:1px;stroke-linecap:butt;stroke-linejoin:miter;stroke-opacity:1;marker-end:url(#marker5705)"
       d="M 303.51267,155.52581 446.44925,283.29994"
       id="path5779-4"
       inkscape:connector-curvature="0"
       sodipodi:nodetypes="cc" />
    <path
       style="fill:none;stroke:#000000;stroke-width:1px;stroke-linecap:butt;stroke-linejoin:miter;stroke-opacity:1;marker-end:url(#marker5705)"
       d="M 303.51267,155.52581 448.97464,445.9345"
       id="path5781-8"
       inkscape:connector-curvature="0"
       sodipodi:nodetypes="cc" />
    <path
       style="fill:none;stroke:#000000;stroke-width:1px;stroke-linecap:butt;stroke-linejoin:miter;stroke-opacity:1;marker-end:url(#marker5705)"
       d="m 303.00759,286.07786 142.93658,0.29315"
       id="path5785-5"
       inkscape:connector-curvature="0"
       sodipodi:nodetypes="cc" />
    <path
       style="fill:none;stroke:#000000;stroke-width:1px;stroke-linecap:butt;stroke-linejoin:miter;stroke-opacity:1;marker-end:url(#marker5705)"
       d="M 303.00759,286.07786 446.95433,157.53596"
       id="path5787-6"
       inkscape:connector-curvature="0"
       sodipodi:nodetypes="cc" />
    <path
       style="fill:none;stroke:#000000;stroke-width:1px;stroke-linecap:butt;stroke-linejoin:miter;stroke-opacity:1;marker-end:url(#marker5705)"
       d="m 303.00759,286.07786 144.95689,162.8871"
       id="path5789-3"
       inkscape:connector-curvature="0"
       sodipodi:nodetypes="cc" />
    <path
       style="fill:none;stroke:#000000;stroke-width:1px;stroke-linecap:butt;stroke-linejoin:miter;stroke-opacity:1;marker-end:url(#marker5705)"
       d="m 303.51267,448.16418 c 2.0203,-0.50507 144.45181,-0.23224 144.45181,-0.23224"
       id="path5791-3"
       inkscape:connector-curvature="0"
       sodipodi:nodetypes="cc" />
    <path
       style="fill:none;stroke:#000000;stroke-width:1px;stroke-linecap:butt;stroke-linejoin:miter;stroke-opacity:1;marker-end:url(#marker5705)"
       d="M 305.53298,446.67181 447.4594,288.83547"
       id="path5793-2"
       inkscape:connector-curvature="0"
       sodipodi:nodetypes="cc" />
    <path
       style="fill:none;stroke:#000000;stroke-width:1px;stroke-linecap:butt;stroke-linejoin:miter;stroke-opacity:1;marker-end:url(#marker5705)"
       d="M 305.53298,446.67181 447.45941,163.05118"
       id="path5795-5"
       inkscape:connector-curvature="0"
       sodipodi:nodetypes="cc" />
    <path
       style="fill:none;stroke:#000000;stroke-width:1px;stroke-linecap:butt;stroke-linejoin:miter;stroke-opacity:1;marker-end:url(#marker5705)"
       d="m 524.80352,155.02073 104.87023,61.43876"
       id="path5777-8-7"
       inkscape:connector-curvature="0"
       sodipodi:nodetypes="cc" />
    <path
       style="fill:none;stroke:#000000;stroke-width:1px;stroke-linecap:butt;stroke-linejoin:miter;stroke-opacity:1;marker-end:url(#marker5705)"
       d="m 524.29844,285.57279 102.93658,0.29315"
       id="path5785-5-9"
       inkscape:connector-curvature="0"
       sodipodi:nodetypes="cc" />
    <path
       style="fill:none;stroke:#000000;stroke-width:1px;stroke-linecap:butt;stroke-linejoin:miter;stroke-opacity:1;marker-end:url(#marker5705)"
       d="m 526.2321,447.65911 c 2.0203,-0.50507 101.59467,-38.08938 101.59467,-38.08938"
       id="path5791-3-9"
       inkscape:connector-curvature="0"
       sodipodi:nodetypes="cc" />
    <g
       id="g4351-5-9-7"
       transform="matrix(0.88839033,0,0,0.88839033,361.16134,208.0424)">
      <path
         transform="matrix(0.6913532,0,0,0.6913532,54.49272,52.66449)"
         d="m 127.27922,172.26677 c 0,1.25526 -1.01759,2.27284 -2.27284,2.27284 -1.25526,0 -2.27284,-1.01758 -2.27284,-2.27284 0,-1.25526 1.01758,-2.27284 2.27284,-2.27284 1.25525,0 2.27284,1.01758 2.27284,2.27284 z"
         sodipodi:ry="2.2728431"
         sodipodi:rx="2.2728431"
         sodipodi:cy="172.26677"
         sodipodi:cx="125.00638"
         id="path4324-3-8-7"
         style="fill:#000000;fill-opacity:1;stroke:#000000;stroke-width:2;stroke-miterlimit:4;stroke-dasharray:none"
         sodipodi:type="arc" />
      <path
         transform="matrix(0.6913532,0,0,0.6913532,54.49272,62.639771)"
         d="m 127.27922,172.26677 c 0,1.25526 -1.01759,2.27284 -2.27284,2.27284 -1.25526,0 -2.27284,-1.01758 -2.27284,-2.27284 0,-1.25526 1.01758,-2.27284 2.27284,-2.27284 1.25525,0 2.27284,1.01758 2.27284,2.27284 z"
         sodipodi:ry="2.2728431"
         sodipodi:rx="2.2728431"
         sodipodi:cy="172.26677"
         sodipodi:cx="125.00638"
         id="path4324-2-8-9-4"
         style="fill:#000000;fill-opacity:1;stroke:#000000;stroke-width:2;stroke-miterlimit:4;stroke-dasharray:none"
         sodipodi:type="arc" />
      <path
         transform="matrix(0.6913532,0,0,0.6913532,54.49272,72.615052)"
         d="m 127.27922,172.26677 c 0,1.25526 -1.01759,2.27284 -2.27284,2.27284 -1.25526,0 -2.27284,-1.01758 -2.27284,-2.27284 0,-1.25526 1.01758,-2.27284 2.27284,-2.27284 1.25525,0 2.27284,1.01758 2.27284,2.27284 z"
         sodipodi:ry="2.2728431"
         sodipodi:rx="2.2728431"
         sodipodi:cy="172.26677"
         sodipodi:cx="125.00638"
         id="path4324-23-2-1-16"
         style="fill:#000000;fill-opacity:1;stroke:#000000;stroke-width:2;stroke-miterlimit:4;stroke-dasharray:none"
         sodipodi:type="arc" />
    </g>
    <g
       id="g4351-5-9-1"
       transform="matrix(0.88839033,0,0,0.88839033,139.43286,208.0424)">
      <path
         transform="matrix(0.6913532,0,0,0.6913532,54.49272,52.66449)"
         d="m 127.27922,172.26677 c 0,1.25526 -1.01759,2.27284 -2.27284,2.27284 -1.25526,0 -2.27284,-1.01758 -2.27284,-2.27284 0,-1.25526 1.01758,-2.27284 2.27284,-2.27284 1.25525,0 2.27284,1.01758 2.27284,2.27284 z"
         sodipodi:ry="2.2728431"
         sodipodi:rx="2.2728431"
         sodipodi:cy="172.26677"
         sodipodi:cx="125.00638"
         id="path4324-3-8-73"
         style="fill:#000000;fill-opacity:1;stroke:#000000;stroke-width:2;stroke-miterlimit:4;stroke-dasharray:none"
         sodipodi:type="arc" />
      <path
         transform="matrix(0.6913532,0,0,0.6913532,54.49272,62.639771)"
         d="m 127.27922,172.26677 c 0,1.25526 -1.01759,2.27284 -2.27284,2.27284 -1.25526,0 -2.27284,-1.01758 -2.27284,-2.27284 0,-1.25526 1.01758,-2.27284 2.27284,-2.27284 1.25525,0 2.27284,1.01758 2.27284,2.27284 z"
         sodipodi:ry="2.2728431"
         sodipodi:rx="2.2728431"
         sodipodi:cy="172.26677"
         sodipodi:cx="125.00638"
         id="path4324-2-8-9-1"
         style="fill:#000000;fill-opacity:1;stroke:#000000;stroke-width:2;stroke-miterlimit:4;stroke-dasharray:none"
         sodipodi:type="arc" />
      <path
         transform="matrix(0.6913532,0,0,0.6913532,54.49272,72.615052)"
         d="m 127.27922,172.26677 c 0,1.25526 -1.01759,2.27284 -2.27284,2.27284 -1.25526,0 -2.27284,-1.01758 -2.27284,-2.27284 0,-1.25526 1.01758,-2.27284 2.27284,-2.27284 1.25525,0 2.27284,1.01758 2.27284,2.27284 z"
         sodipodi:ry="2.2728431"
         sodipodi:rx="2.2728431"
         sodipodi:cy="172.26677"
         sodipodi:cx="125.00638"
         id="path4324-23-2-1-2"
         style="fill:#000000;fill-opacity:1;stroke:#000000;stroke-width:2;stroke-miterlimit:4;stroke-dasharray:none"
         sodipodi:type="arc" />
    </g>
    <g
       id="g4351-5-9-1-8"
       transform="matrix(0.88839033,0,0,0.88839033,-57.041809,190.69109)">
      <path
         transform="matrix(0.6913532,0,0,0.6913532,54.49272,52.66449)"
         d="m 127.27922,172.26677 c 0,1.25526 -1.01759,2.27284 -2.27284,2.27284 -1.25526,0 -2.27284,-1.01758 -2.27284,-2.27284 0,-1.25526 1.01758,-2.27284 2.27284,-2.27284 1.25525,0 2.27284,1.01758 2.27284,2.27284 z"
         sodipodi:ry="2.2728431"
         sodipodi:rx="2.2728431"
         sodipodi:cy="172.26677"
         sodipodi:cx="125.00638"
         id="path4324-3-8-73-0"
         style="fill:#000000;fill-opacity:1;stroke:#000000;stroke-width:2;stroke-miterlimit:4;stroke-dasharray:none"
         sodipodi:type="arc" />
      <path
         transform="matrix(0.6913532,0,0,0.6913532,54.49272,62.639771)"
         d="m 127.27922,172.26677 c 0,1.25526 -1.01759,2.27284 -2.27284,2.27284 -1.25526,0 -2.27284,-1.01758 -2.27284,-2.27284 0,-1.25526 1.01758,-2.27284 2.27284,-2.27284 1.25525,0 2.27284,1.01758 2.27284,2.27284 z"
         sodipodi:ry="2.2728431"
         sodipodi:rx="2.2728431"
         sodipodi:cy="172.26677"
         sodipodi:cx="125.00638"
         id="path4324-2-8-9-1-6"
         style="fill:#000000;fill-opacity:1;stroke:#000000;stroke-width:2;stroke-miterlimit:4;stroke-dasharray:none"
         sodipodi:type="arc" />
      <path
         transform="matrix(0.6913532,0,0,0.6913532,54.49272,72.615052)"
         d="m 127.27922,172.26677 c 0,1.25526 -1.01759,2.27284 -2.27284,2.27284 -1.25526,0 -2.27284,-1.01758 -2.27284,-2.27284 0,-1.25526 1.01758,-2.27284 2.27284,-2.27284 1.25525,0 2.27284,1.01758 2.27284,2.27284 z"
         sodipodi:ry="2.2728431"
         sodipodi:rx="2.2728431"
         sodipodi:cy="172.26677"
         sodipodi:cx="125.00638"
         id="path4324-23-2-1-2-8"
         style="fill:#000000;fill-opacity:1;stroke:#000000;stroke-width:2;stroke-miterlimit:4;stroke-dasharray:none"
         sodipodi:type="arc" />
    </g>
    <text
       xml:space="preserve"
       style="font-size:17px;font-style:normal;font-variant:normal;font-weight:normal;font-stretch:normal;text-align:start;line-height:125%;letter-spacing:0px;word-spacing:0px;writing-mode:lr-tb;text-anchor:start;fill:#000000;fill-opacity:1;stroke:none;font-family:Sans;-inkscape-font-specification:Sans"
       x="635.47882"
       y="220.52264"
       id="text6797"
       sodipodi:linespacing="125%"><tspan
         sodipodi:role="line"
         id="tspan6799"
         x="635.47882"
         y="220.52264">y<tspan
   style="font-size:65.00091553%;baseline-shift:sub"
   id="tspan6841">1</tspan></tspan></text>
    <text
       xml:space="preserve"
       style="font-size:17px;font-style:normal;font-variant:normal;font-weight:normal;font-stretch:normal;text-align:start;line-height:125%;letter-spacing:0px;word-spacing:0px;writing-mode:lr-tb;text-anchor:start;fill:#000000;fill-opacity:1;stroke:none;font-family:Sans;-inkscape-font-specification:Sans"
       x="635.52197"
       y="289.94049"
       id="text6797-8"
       sodipodi:linespacing="125%"><tspan
         sodipodi:role="line"
         id="tspan6799-3"
         x="635.52197"
         y="289.94049">y<tspan
   style="font-size:65.00091553%;baseline-shift:sub"
   id="tspan6843">2</tspan></tspan></text>
    <text
       xml:space="preserve"
       style="font-size:17px;font-style:normal;font-variant:normal;font-weight:normal;font-stretch:normal;text-align:start;line-height:125%;letter-spacing:0px;word-spacing:0px;writing-mode:lr-tb;text-anchor:start;fill:#000000;fill-opacity:1;stroke:none;font-family:Sans;-inkscape-font-specification:Sans"
       x="633.57147"
       y="413.17911"
       id="text6829"
       sodipodi:linespacing="125%"><tspan
         sodipodi:role="line"
         id="tspan6831"
         x="633.57147"
         y="413.17911">y<tspan
   style="font-size:65.00091553%;baseline-shift:sub"
   id="tspan6845">m</tspan></tspan></text>
    <g
       id="g4351-5-9-7-6"
       transform="matrix(0.88839033,0,0,0.88839033,501.95419,190.69109)">
      <path
         transform="matrix(0.6913532,0,0,0.6913532,54.49272,52.66449)"
         d="m 127.27922,172.26677 c 0,1.25526 -1.01759,2.27284 -2.27284,2.27284 -1.25526,0 -2.27284,-1.01758 -2.27284,-2.27284 0,-1.25526 1.01758,-2.27284 2.27284,-2.27284 1.25525,0 2.27284,1.01758 2.27284,2.27284 z"
         sodipodi:ry="2.2728431"
         sodipodi:rx="2.2728431"
         sodipodi:cy="172.26677"
         sodipodi:cx="125.00638"
         id="path4324-3-8-7-8"
         style="fill:#000000;fill-opacity:1;stroke:#000000;stroke-width:2;stroke-miterlimit:4;stroke-dasharray:none"
         sodipodi:type="arc" />
      <path
         transform="matrix(0.6913532,0,0,0.6913532,54.49272,62.639771)"
         d="m 127.27922,172.26677 c 0,1.25526 -1.01759,2.27284 -2.27284,2.27284 -1.25526,0 -2.27284,-1.01758 -2.27284,-2.27284 0,-1.25526 1.01758,-2.27284 2.27284,-2.27284 1.25525,0 2.27284,1.01758 2.27284,2.27284 z"
         sodipodi:ry="2.2728431"
         sodipodi:rx="2.2728431"
         sodipodi:cy="172.26677"
         sodipodi:cx="125.00638"
         id="path4324-2-8-9-4-0"
         style="fill:#000000;fill-opacity:1;stroke:#000000;stroke-width:2;stroke-miterlimit:4;stroke-dasharray:none"
         sodipodi:type="arc" />
      <path
         transform="matrix(0.6913532,0,0,0.6913532,54.49272,72.615052)"
         d="m 127.27922,172.26677 c 0,1.25526 -1.01759,2.27284 -2.27284,2.27284 -1.25526,0 -2.27284,-1.01758 -2.27284,-2.27284 0,-1.25526 1.01758,-2.27284 2.27284,-2.27284 1.25525,0 2.27284,1.01758 2.27284,2.27284 z"
         sodipodi:ry="2.2728431"
         sodipodi:rx="2.2728431"
         sodipodi:cy="172.26677"
         sodipodi:cx="125.00638"
         id="path4324-23-2-1-16-0"
         style="fill:#000000;fill-opacity:1;stroke:#000000;stroke-width:2;stroke-miterlimit:4;stroke-dasharray:none"
         sodipodi:type="arc" />
    </g>
    <text
       xml:space="preserve"
       style="font-size:21px;font-style:normal;font-variant:normal;font-weight:normal;font-stretch:normal;text-align:center;line-height:125%;letter-spacing:0px;word-spacing:0px;writing-mode:lr-tb;text-anchor:middle;fill:#000000;fill-opacity:1;stroke:none;font-family:Sans;-inkscape-font-specification:Sans"
       x="87.14286"
       y="69.505035"
       id="text6874"
       sodipodi:linespacing="125%"><tspan
         sodipodi:role="line"
         id="tspan6876"
         x="87.14286"
         y="69.505035">Camada</tspan><tspan
         sodipodi:role="line"
         x="87.14286"
         y="95.755035"
         id="tspan6888">de entrada</tspan></text>
    <text
       xml:space="preserve"
       style="font-size:21px;font-style:normal;font-variant:normal;font-weight:normal;font-stretch:normal;text-align:center;line-height:125%;letter-spacing:0px;word-spacing:0px;writing-mode:lr-tb;text-anchor:middle;fill:#000000;fill-opacity:1;stroke:none;font-family:Sans;-inkscape-font-specification:Sans"
       x="265"
       y="69.505035"
       id="text6878"
       sodipodi:linespacing="125%"><tspan
         sodipodi:role="line"
         id="tspan6880"
         x="265"
         y="69.505035">Camada</tspan><tspan
         sodipodi:role="line"
         x="265"
         y="95.755035"
         id="tspan6886">escondida</tspan></text>
    <text
       xml:space="preserve"
       style="font-size:21px;font-style:normal;font-variant:normal;font-weight:normal;font-stretch:normal;text-align:center;line-height:125%;letter-spacing:0px;word-spacing:0px;writing-mode:lr-tb;text-anchor:middle;fill:#000000;fill-opacity:1;stroke:none;font-family:Sans;-inkscape-font-specification:Sans"
       x="491.42856"
       y="69.505035"
       id="text6882"
       sodipodi:linespacing="125%"><tspan
         sodipodi:role="line"
         id="tspan6884"
         x="491.42856"
         y="69.505035">Camada</tspan><tspan
         sodipodi:role="line"
         x="491.42856"
         y="95.755035"
         id="tspan6890">de saída</tspan></text>
  </g>
</svg>
