<?xml version="1.0" encoding="UTF-8" standalone="no"?>
<!-- Created with Inkscape (http://www.inkscape.org/) -->

<svg
   xmlns:dc="http://purl.org/dc/elements/1.1/"
   xmlns:cc="http://creativecommons.org/ns#"
   xmlns:rdf="http://www.w3.org/1999/02/22-rdf-syntax-ns#"
   xmlns:svg="http://www.w3.org/2000/svg"
   xmlns="http://www.w3.org/2000/svg"
   xmlns:sodipodi="http://sodipodi.sourceforge.net/DTD/sodipodi-0.dtd"
   xmlns:inkscape="http://www.inkscape.org/namespaces/inkscape"
   width="744.09448819"
   height="1052.3622047"
   id="svg6359"
   version="1.1"
   inkscape:version="0.48.4 r9939"
   sodipodi:docname="New document 38">
  <defs
     id="defs6361" />
  <sodipodi:namedview
     id="base"
     pagecolor="#ffffff"
     bordercolor="#666666"
     borderopacity="1.0"
     inkscape:pageopacity="0.0"
     inkscape:pageshadow="2"
     inkscape:zoom="1.979899"
     inkscape:cx="278.61572"
     inkscape:cy="723.558"
     inkscape:document-units="px"
     inkscape:current-layer="layer1"
     showgrid="false"
     showguides="true"
     inkscape:guide-bbox="true"
     inkscape:snap-global="true"
     inkscape:window-width="1918"
     inkscape:window-height="1078"
     inkscape:window-x="1920"
     inkscape:window-y="0"
     inkscape:window-maximized="0">
    <inkscape:grid
       type="xygrid"
       id="grid6948" />
  </sodipodi:namedview>
  <metadata
     id="metadata6364">
    <rdf:RDF>
      <cc:Work
         rdf:about="">
        <dc:format>image/svg+xml</dc:format>
        <dc:type
           rdf:resource="http://purl.org/dc/dcmitype/StillImage" />
        <dc:title></dc:title>
      </cc:Work>
    </rdf:RDF>
  </metadata>
  <g
     inkscape:label="Layer 1"
     inkscape:groupmode="layer"
     id="layer1">
    <path
       sodipodi:type="arc"
       style="opacity:0.97950822;fill:#000000;fill-opacity:1;fill-rule:nonzero;stroke:#000000;stroke-width:0.958;stroke-miterlimit:4;stroke-dasharray:0.958, 0.958;stroke-dashoffset:0"
       id="path6367"
       sodipodi:cx="227.85715"
       sodipodi:cy="403.07648"
       sodipodi:rx="32.142857"
       sodipodi:ry="32.142857"
       d="m 260,403.07648 a 32.142857,32.142857 0 1 1 -64.28571,0 32.142857,32.142857 0 1 1 64.28571,0 z"
       transform="matrix(0.62776928,0,0,0.62776928,186.24399,-55.370149)" />
    <path
       style="opacity:0.97950822000000004;fill:none;stroke:#000000;stroke-width:2;stroke-miterlimit:4;stroke-dasharray:none;stroke-dashoffset:0"
       d="m 486.42856,353.79075 c 0,86.7876 -70.35525,157.14285 -157.14285,157.14285 -86.7876,0 -157.14285,-70.35525 -157.14285,-157.14285 0,-86.7876 70.35525,-157.14285 157.14285,-157.14285 86.7876,0 157.14285,70.35525 157.14285,157.14285 z"
       id="path6436"
       inkscape:connector-curvature="0" />
    <path
       sodipodi:type="arc"
       style="opacity:0.97950822;fill:#000000;fill-opacity:1;fill-rule:nonzero;stroke:#000000;stroke-width:0.958;stroke-miterlimit:4;stroke-dasharray:0.958, 0.958;stroke-dashoffset:0"
       id="path6367-0"
       sodipodi:cx="227.85715"
       sodipodi:cy="403.07648"
       sodipodi:rx="32.142857"
       sodipodi:ry="32.142857"
       d="m 260,403.07648 a 32.142857,32.142857 0 1 1 -64.28571,0 32.142857,32.142857 0 1 1 64.28571,0 z"
       transform="matrix(0.62776928,0,0,0.62776928,296.35695,-9.21533)" />
    <path
       sodipodi:type="arc"
       style="opacity:0.97950822;fill:#000000;fill-opacity:1;fill-rule:nonzero;stroke:#000000;stroke-width:0.958;stroke-miterlimit:4;stroke-dasharray:0.958, 0.958;stroke-dashoffset:0"
       id="path6367-0-8"
       sodipodi:cx="227.85715"
       sodipodi:cy="403.07648"
       sodipodi:rx="32.142857"
       sodipodi:ry="32.142857"
       d="m 260,403.07648 a 32.142857,32.142857 0 1 1 -64.28571,0 32.142857,32.142857 0 1 1 64.28571,0 z"
       transform="matrix(0.62776928,0,0,0.62776928,342.13319,100.75172)" />
    <path
       sodipodi:type="arc"
       style="opacity:0.97950822;fill:#000000;fill-opacity:1;fill-rule:nonzero;stroke:#000000;stroke-width:0.958;stroke-miterlimit:4;stroke-dasharray:0.958, 0.958;stroke-dashoffset:0"
       id="path6367-0-8-8"
       sodipodi:cx="227.85715"
       sodipodi:cy="403.07648"
       sodipodi:rx="32.142857"
       sodipodi:ry="32.142857"
       d="m 260,403.07648 a 32.142857,32.142857 0 1 1 -64.28571,0 32.142857,32.142857 0 1 1 64.28571,0 z"
       transform="matrix(0.62776928,0,0,0.62776928,29.817253,100.75172)" />
    <path
       sodipodi:type="arc"
       style="opacity:0.97950822;fill:#000000;fill-opacity:1;fill-rule:nonzero;stroke:#000000;stroke-width:0.958;stroke-miterlimit:4;stroke-dasharray:0.958, 0.958;stroke-dashoffset:0"
       id="path6367-3"
       sodipodi:cx="227.85715"
       sodipodi:cy="403.07648"
       sodipodi:rx="32.142857"
       sodipodi:ry="32.142857"
       d="m 260,403.07648 a 32.142857,32.142857 0 1 1 -64.28571,0 32.142857,32.142857 0 1 1 64.28571,0 z"
       transform="matrix(0.62776928,0,0,0.62776928,186.24399,257.11346)" />
    <path
       sodipodi:type="arc"
       style="opacity:0.97950822;fill:#000000;fill-opacity:1;fill-rule:nonzero;stroke:#000000;stroke-width:0.958;stroke-miterlimit:4;stroke-dasharray:0.958, 0.958;stroke-dashoffset:0"
       id="path6367-0-5"
       sodipodi:cx="227.85715"
       sodipodi:cy="403.07648"
       sodipodi:rx="32.142857"
       sodipodi:ry="32.142857"
       d="m 260,403.07648 a 32.142857,32.142857 0 1 1 -64.28571,0 32.142857,32.142857 0 1 1 64.28571,0 z"
       transform="matrix(0.62776928,0,0,0.62776928,74.21104,210.93058)" />
    <path
       sodipodi:type="arc"
       style="opacity:0.97950822;fill:#000000;fill-opacity:1;fill-rule:nonzero;stroke:#000000;stroke-width:0.958;stroke-miterlimit:4;stroke-dasharray:0.958, 0.958;stroke-dashoffset:0"
       id="path6367-0-3"
       sodipodi:cx="227.85715"
       sodipodi:cy="403.07648"
       sodipodi:rx="32.142857"
       sodipodi:ry="32.142857"
       d="m 260,403.07648 a 32.142857,32.142857 0 1 1 -64.28571,0 32.142857,32.142857 0 1 1 64.28571,0 z"
       transform="matrix(0.62776928,0,0,0.62776928,298.22809,210.73582)" />
    <path
       sodipodi:type="arc"
       style="opacity:0.97950822;fill:#000000;fill-opacity:1;fill-rule:nonzero;stroke:#000000;stroke-width:0.958;stroke-miterlimit:4;stroke-dasharray:0.958, 0.958;stroke-dashoffset:0"
       id="path6367-0-3-9"
       sodipodi:cx="227.85715"
       sodipodi:cy="403.07648"
       sodipodi:rx="32.142857"
       sodipodi:ry="32.142857"
       d="m 260,403.07648 a 32.142857,32.142857 0 1 1 -64.28571,0 32.142857,32.142857 0 1 1 64.28571,0 z"
       transform="matrix(0.62776928,0,0,0.62776928,76.22809,-9.26418)" />
  </g>
</svg>
